<mxfile host="app.diagrams.net" agent="Mozilla/5.0 (Macintosh; Intel Mac OS X 10_15_7) AppleWebKit/537.36 (KHTML, like Gecko) Chrome/134.0.0.0 Safari/537.36" version="26.1.3">
  <diagram name="Page-1" id="uLBI8ZmXR6azkufYd1KH">
    <mxGraphModel dx="1517" dy="1008" grid="1" gridSize="10" guides="1" tooltips="1" connect="1" arrows="1" fold="1" page="1" pageScale="1" pageWidth="850" pageHeight="1100" math="0" shadow="0">
      <root>
        <mxCell id="0" />
        <mxCell id="1" parent="0" />
        <mxCell id="e2Iv5FSNz80p6eu2SdD5-1" value="" style="shape=image;verticalLabelPosition=bottom;labelBackgroundColor=default;verticalAlign=top;aspect=fixed;imageAspect=0;image=data:image/png,iVBORw0KGgoAAAANSUhEUgAAAosAAACyCAYAAAAqAIVbAAAACXBIWXMAAC4jAAAuIwF4pT92AAAgAElEQVR4nO3dP2wkaV7G8bdgJSRA8pw4dAG6brdEQMR4IzLWk5Gg8WSIZDwRiGQ8EimsRySXrS0SIsaOCMdGCCERjE2Opo0INkHtbukCAnRjcRJHgAq9s0/t1vR2Vb3vW29Vv1X9/Uij25uxu7q6+616+v3ze7M8zw0AAACwyS/xqgAAAKAKYREAAACVCIsAAACoRFgEAABAJcIiAAAAKhEWAQAAUImwCAAAgEqERQAAAFQiLAIAAKASYREAAACVCIsAAACoRFgEAABAJcIiAAAAKhEWAQAAUImwCAAAgEqERQAAAFQiLAIAAKASYREAAACVCIsAAACoRFgEAABAJcIiAAAAKhEWAQAAUImwCAAAgEqERQAAAFQiLAIAAKASYREAAACVCIsAAACo9BkvzXbMJtN9Y8ypMebIGLNnjLm2/3+xWs538fUAAABpyvI8563p2WwyPTPG/Kkx5lfWjvxgjDkkMAIAgFQQFns0m0xtL6INitOao9rAuL9YLT+M7gUAAACDwzB0DzTkfGGM+cLhaHZI+sYYczD4EwcAAINHz2KHZpPpI81LfBlwlMvFank8mJMFAACjRFjsyGwyPdaQ816LI7xYrJYXSZ8oAAAYNcJiZLPJ9FAh8XGkR36yWC1vkjlBAACwUwiLkZRK4TyP/NB2wcvBYrW839rJAQCAnUVR7ghmk6kNifMOgqLRMPaV5j8CAAD0itXQLTiWwonhsVZTH6X8egAAgPGhZzHQbDI9Mca8DQiK/xl4yKcq5g0AANAbwmK4C80ndHVrjPncGPOjmp//RcNjvdQqawAAgF4QFgNphxWXnr6lSuAcOvzsucPPnM0mUwp2AwCAXhAWW1islqcKg1VeayVzUStxv+FoP9Hv1Pm4wwsLXgAAQB8Ii+1tGha+ttMabZhc2+O5rkdwaX9WAfS64VkVWwICAAB0irDYkgpm3+pRliqifVRRF7FuKLr88zaA3jU8s8ezyZTdXQAAQKconVOiuYCbhne/DXnq+Vtnw92hw9Z8dcPQ3/YU2h5GleWZN2wX+Hw2mV4tVsurhuMCAAAEGfUOLlo5bEPXD40xv22M+Vr/tB9aG3GxWmYtnk/di/1sPfRp68B3Nb/D3tEAAKBTow2Ls8l0HnF/5rLPF6vlPOD5NAW/jY+rwPtm7a8f1JPp/TwAAAB8jHLOogpmdxEUTcUwtYvacjdVwU89h5elv7rTCmuCIgAA6NxYF7ikuC1e3XzF2sUsi9WyWPByqR7FTYtnAAAAohvrApffTeA5rKvrWWzsJVyslhTiBgAAvRtrz+IPEngO676o+Td6CgEAQJJG17OohSSxLUuB7oPvY88m06adW4ILbNvSOfrPC0roAACA2MY4DO07XPsfxhi7IObnNgh2tHDkkQJnVbmeoGMqhD7V/306m0yX2q/6Ym3nGAAAgCCjK50zm0xtWHrp+Wt3fc0JVM/ngRa8HGhlc9AK64ZzvVRoZFtAAAAQbIxh8aZhfmCVS606HozZZPqhYYcXo1XUNlRe0dsIAAB8jTEsugSoKueL1fKk+2fZXkWx7jq2kLet2Xg2hNI7WZal9MEs5qzOi//N83wrPbZZlh1q2sRh6XP+oHmvZ9t6XgCA8RpVWNQcvkXLhxnEFnotelCtWw1RJ3ueiYXFKvZ1tIuKrvI87zSAZ1n2SMdqes/tczrK85xeZABAFGMLi01b6v2VMeYvHB4q6cCoUDxv0YNasD1m/2SM+UlqvY0DCYtl11317Cko3njsSmSnHhwSGAEAMYytzmJt2ZzFavmXa1vnVTmbTabJFsFWsLOB8UXT7i8N7OrsP7EPaUvwOJT4QTW7Kv1dlmU3GiqO6cpz+8rH+h0AAFobW1isCzt2eK7YOu+64XFsj91N4oHRlvm50Cruzx1DcJ2nOufQva/xjS8UGs/UI9hKlmXHgdMNvtDvAgDQytjCouuWescOPXI2MF4MITzZ2pAKwXbnmlcaXg4x1WuD9mxJo3mWZW2/cLTZ5zzFPdIBAAMztrBYN1T37Zw8lZA5dAhVj4fU26beRrva2fawPnPoQd2EnsV4bPi+aRkYnzr8TBe/CwDAR6MJiw5Dxp/skqLAeKSyI3UeB+wKs3Xa+s8u0vnp0J77yOxFCIwAAGzNmHoWmxZnfG9LPW3tV7cYwQbJZ213QbE9k3aldl9zIHUs+5zfGmN+y/PXf97R09plBEYAwGCNKSzW3YiXVbuXKDC+2PBPNigeqocuiELiqTHmZyrp8342md53FRrtaubZZHqhY4XWYPw68tPCN/bU0wsAwKB8NqK3q66HsLaGoF1VrHmJX+mv7OKXoza1B2eTqR3i/lstOimbah7kfqzt9/TcTwP2xP6exWr5DzGeU8/utKtJG/trvdOHmr/pU7KmyeMsy07zPD/1+J3rFvMWQ+asAgDwiTGFxbph6MZhZLswRD1+B+pRDApyqlV40dCzZ3uZvp5Npr/TNjCq5/IkQoFu07Jm4zZ96HKbO9VNPNKfacuH+zLLsguPHV+uWoRFai0CAFob0zC0DU3nqqe4vmjF6cZsy8/YuoUhAU5DzmfabtBlCPhHtvi373FKxzu2Q9o2fEQKisb1ddo1NojmeX6S53mxyrxtqHbuWczz/CLweHf6XQAAWhnVdn9lGpo90HDiRZfb2dngpuAXEtpeL1ZLn2FJe7x54PCoLRX0m8aYX431XLriud3fbZ7nsXdNqZVl2Ulp2kKImWvvYpZlvts72i9LB13vVw0A2A1jq7P4LdUcvLHhp6ugWFp1/KZF796Xmt/ow7fn80GLeA5qgqLZtGIcm+V5fqadc5pKL1VxLn6u0Hfg2MN4R1AEAMQ0+LAYELRiHPNRhFXHZReeK6Rdg4YNMq/tfE67iMehXiRh0UOe5/MWu6R47ZRjw1+e5wc1+4Hbv3thf4agCACIadBhUcO/bxXc+jrmieb2PY/4sLZX8sp1pxj1lDbtBW3//UA9q0VPZG1Y7HKofqy0sOZ1wOlNNbzsxc5DVCDM1LP5uf1v/R1zFAEA0Q02LGoxyRv93+ddB0YNOd9rnlqsBSVlU5dV2yUnFUOgdoHPTIt11sNfXVi8DXnS+OgscDi61TxL27Op3k0AADozyLCoYLheU/C5ehpjH8sWur7SkHPbsilNHruGXvUWlldT22HIJ4vV8rCmh7CuJ4texUB5nn8ILLjNji4AgOQNKixqruC8Zgj4TQeBMaTO3b+2ON5zDXW7OCvmqqnkT1PPZN38SsJiO4RFAMAoDaZ0jubz3TiUjCm26YsyPGeHn9Wr6OJBw8MftC9zG8/abDW44Tz2VQOyypO2e2DHlHrpnE2yLPvgOUXhIc9zp3mqAABsyyB6FrVS+N6xtmCULfQKClAu26adO646toHylcPj+a6QbsJK6O75voZdzH0FACCq5MOievZuHG+sd1oBHDv4VC0mMaUFJSeOq47ndmtBh9XMXiukHdQG2Fj7VAMAgHFJOixq/uE7x6B43WZP5zpaMLK+Nd9SQ8WbFpTUBbOPQ712tbJDkeVpxP19awNspGPsumSG8QEAiCXZsKhFHm8cftS6XKyWRx33jp0pIBaFrg9q5hTWrZouB8tDPWadLyKVBapbCU1YBAAAG32W4suicORa9LqX/YxtEFVP531d8WoNm9e5X3vMI4dh9hhzFw/1OMWf/dLqaMJiHFtfZAMAQGxJhUXNz7vwKFXzQgtKeuG4Wrh2V471x7DzK4udaCp+5VJzJltRr+vN+lCpVkkzXxEAAGyUTFhUUPw3Y8yPHX7cDgUfpVTqpaQuLG6co2iHs2eT6SvtDlPWea8pW/xF5dsDHLLrCwAAvUoiLJZqKLoExf8xxvx5okHRNAxFVgYzu0JapXKeF/Ua++w1RTtZlh0ElMIZ9fB/lmWP1B7KUyCqXqMHvR7FnyvtjDMIpXM90P8+cij1dade/Rud882Qzrksy7Ly+/yoYQMAU3q/70vnnlx7CDiv0byndWjbu9O2C0kU5faco1h2V7rYzDWfcKsXnNlkWleYubansDQMf9rnedih6NR6GIdWlDvLsrMNW1A2Oc/z3GmKgc/rked55vncoz52lmV2Hu5xwM5H6651Y0nyS1OWZXYUoThXlxqwLu50DbDnnWyvv26gx7p5tn2fCw+q/nCzrfdc53WkP7HOa2vvKW07zC637SqphMX7yPsu35W+td40LUqJRWHvZzUPF3VXlra0uOZMr09SizOGFBZ1g7kP6Fl84XqxHEJYzLLMXlhPO9hD3VYMOMnzPIm2o/M8duhlasvWcD3N8zylnZUOde4hX+59POjGetbHjVXh4LSH8+r1PaVt+9nltt1kUHtDe3isRv+l6jTWbXMXU9OctSS+TdgV27PJ9EaLaqYqz8NK3nAngbuxjKIuox2Cz7LsRqWuYt9MjB7zrT2GgvlW2F6VLMvudZ5d30yMjvFO573VfcRtSNR7/K6HQGXUnmxP/SLLsouu3ncbEnVei57Oq3hP7xW8k0bb7kwybdtVKmGx65vmbcePX6h90xMYIt+fTaZXuuCvNwjmRwbQBf/LgF9dDnEoYp2+id/0eIG97/viWgoUbzu6YTax5/1eUx16ZW/gNqxVXDP68lzve+uqEAWd15lC4jbOa1oKC7UVNLaFtt2LrbVtX6mERdu9/b8dPn5fN+W5gummQtt9BdY685q5JlOV8IEjXdhCh08GH851M3nT8x7X9li9fRtXQJlvMSiVvcyybN5XuNAXofueetya2Pf9qxg9UDqvecAc4y7Yz9U8ZhCOgbbdu17bdogkwqLmE/5Nh4foJSzaFdra/s++4T8wxjwxxtiSOOeJDDk2XZBOI+5FPWq60LxvcTEddFgs3Uy2ofObSqlH7aueb5hNHitcdHpDzbLs1GOr1T616oEqndc2epGqFEH4aptDsQXa9tb00rZDJbHAxXy3OKRpkcB/GWN+I+DhnyRcaqdXDouJetkRp0mqC1y0GvC05Qq5yzzPvXpxU1rgop6Zdz7H6IhdBLEfuySFbtg3EVdBdsGe+2EX5WZ0I02hN7HOgxZGuC4Q893wYVvs4szjWO8rbftTu96220hmgYt2GGkKKZ+VeuxeaI/mqmHfMraz+07Ta3xC7+KnNLn/TBOg30a40Gw9jIfSxTaVFf17sXtoO7yZbCzI30InPTADCYpG5/9GvWC1Su9p6kHR6HO3lUUPtO1gg2jbbSXTs1gI7flSwCnve1z8tw2ihJ8SrYSum6dxvlgttzqHxrNn8S7ClohF0d2Ca/FVX6/zPPcOi6n0LOoLWsiCni49iVGCItLNZFnUCrRfUqsWMakHZ1+fs6MWw2F36oVo3QMzoKBY9irP88rFAQPpSdokSu8Sbfsbu962Y0gxLB7V7JNs1IgO2KYunMrkNA01zLb5Gnte5IbiLs/z0LlWqYTFB4+L37JUMN/oIvuoFMwPIk0ujzINwc4Za9H7ZPdwvwi9sbWsY3ed5/lRyHFLxz+NGBQ2ve+mtLtV8WW+bYBrrFPa8j1dV67fa0rnVXyeY36mjV7HgzZhgbb9jV1u27EkFxaNW8/X5WK1ZOVuC6m/xiMMi616ChIKi02KYsoXLuda2jGjbcHfVj0QLcJS1OK6Wjh1GtAb8Sy0sHGkeWpLFfh33p2i9N77FkF+0Ly+2vMN3FVp3bV6k7y2qNPc5qOWPUumzRdMQ9sunsfOtu2YUg2LLhevz7ddt3DIbM1Fh2LlW1sYNLKw2HpIaSBh8bV23AjqCWnZu+W9aKh03AOtbPcVNKXA8flcePa8BS0I0A193uJmvtQNtdX8MgXWU8c9pRvbksJa3QhVk0udV6vRFb2+Jy0K9xufbUE3HJ+2vaNtO7Ykw6Jx2y/6NrUt6rZNBbeLuRkf98yuC9Qpv8YjCou9zz3aQli053gUaW7RgT6/vjfWhzzPg+Ym2/pmARfvxp6tNgLnWHnf4Fr2vp0rUEW7iTX0vtzpc1Yb4Fpsv2lir0Zee05tVmMH9a7Rtne3bceWclhMuudrnRbYnGk+jtGH4UyrvPt6DlVv5vpe2TZEftBrPG9ovFt5jUcSFqPdeBIOi9HLPLQYFvW+oSqcfOXxK72VtVCB3qb2WebVA6HHD90K1Xlfc18VvS/Ok/1bzE8L7sFy1aKGYdD8Rdr2brbtLiS7N7QWV7xu+LEkChurh+6n6qX7Qn++7LMQ92wyrZvXsr5X9s9mk+kHvX5fNzw02wCGOU+xVlZknVxcdVNoavubePWC6xu+77f1k77eU/Wg+YSXPc+fD+2p6Cwomm/Oe673sihJYkOcU1BSGEkyKJpvzu1CZd98TSNUfPBB2+5QD207umTDopzpQ1tlq1vU2bmVKvVjg9ivbviRx7PJ9O97ejq+2wTtKdT+XsPPsQ2gn1t9Cz5JpeRBh6IP1xU05NJUP3Wd70KAY88hsfMuQ9ImGg7z2SrUKVCoZyOkTM6rPl4DtZ1DHa/rANxLUCy0CIwnPe7wQtvuWFdtuytJh0XHQt1nfReRtsO3mh/osm3UH/YUtros4PnXFOpudK2QeBhr9VzibntYoed74/f9wuRz8V1usZh6ZR3BDaaOxXxDzuW6rqZhbDYw+hxPvYq+5Vru+gyKBQWTc89f2+spMNC2+9NF2+5E6j2LNjCeNXwL6W1JuQ1Ms8n0VHMNfIY63miFd5e6fPxf3/a3mkRda+/vma2FtSMhsdDHxdW3bTtPGNdqWZ8VwFEXcvjQjdunJ8Yl/PjWbnsYwDUg5PltrYadVjj79rD18R7QtnvSUdvuRPJhUTZ9eK9VOPq4j0UkKhY+17y/kFV2Vw3zCtvy/ebla5eHou80XHCucGh7EDMFxLO25TUG6LaPYKwLuM8wjQ+fkLDse4hqA5+ba+256Wbqew1L+nOuYXXfuYqvEzgn3+vqnssWhy3QtvsXrW13aRBhcbFaXpQ+WLdaoXvUxw4jGnK+Uc2uNoVFP+512eFw7okmDl8HfFt10ebcu3ar8NbVnwMNL58oHO5SD+ImfV5cu3qtfS66KeyX6/M6TBWeqoT0KvY2/BxokOeka4lvaOoyMNC2+xezbXfmswReKFcn2uavlw+zQt1phB0Ayh7rwxl9yHixWl6tf/A19F3eK7vN9kuxN0vHcPV5gY0+yV7zfnx61lK4ofi+DgelbenW+V5/vHYv2RLfAJXSOV14XptjbV+4CW27fzHbdmcGExZVXLqXZe1akHLWcpumKl/YUjt9bKWn+oiffGtRbUX75w+MMX9sjPmx48NttSAoknHX8022i2N5haUUepLtcGmWeZXPPNh0I1SvhO8oQQo31Ca+X4ST6Sm1w6Aqju58v7GLeTr4XNK2tyBW2+7aUOYs9kKlcG5UNLWLoFh4vq1yNBq6nyssugbFF+q5BPq+uHZxQ/GZO9zFlI5QdWXE1lXdNH3nTT+ksC9tHa2C9rFMsP6p72vcxYJG2vb2xGjbnRrSMHSntMo5dO/KEHaF9H3fu6Nokc2VY+/Cfxtj/mixWv5jD08Nw9Dr8Ie9qXt+63bhM+fnUZZlY5qj6hsWh3DuYzinG8+6l10slqRto9JgwqJ64o71gS5/qOfavq7tB9339+0cvp8YY/6uxTE/rpDuY6GO+S4ouu7Nab91HdXtLY2dNIbPg8+Ndq/lXN9tqXrOvpPjh/B++55Tiqu6fZ9TF4scaNvDsJXnPKRh6H29SMW2dcWftzHKuqytuK5ju4tfLVZL+6H8RcPPNgXJPQXGzgteK2y/dwyKd1pMRFDEGHU5xSR1YwyLg+9ZDJg751x3cMfsctvuFHMWP9W0iOPSXmxVKNw0XKRsqPwzh1XEj7suVzCbTE88Nq+353jYR+1KAMnjOgBgUGGx8943zR+83PBPRW3H9QLgdWFxrp89dJi8+nQ2mXayOs+uvDbGfOX445d9FTnHMFFjcueM8VqQanHxrS64oG2jzpDCYm0wc3kAlY1pclIKdw9aCXxYsRCl7vE+/rxHYHwZc4W0tia88pg0/aKPcj4AhiPBVcOtJbwTza7tBIUBGcswdO23XwUn23O30LZ9lRTuTrS1235DEfC6eSPfNnzN/XPZ0/NNxPmLx47FW4tAvO0tjwCgc9vaAcNBqs8LGP+cRa0Anpd2Ymnccs8Gp8VqeVI3HKvdUep88i1RYex1zc8XoS3KsI/mVW4aUl8/5iFBEcAmATUMhyDVUJbylqrYcUNbDe1FtRPfrzXCvUgLSmqfz6Zh68Vqeaq9m9d1Eto0rFy1wIYVzwAAoNGQwmLlt671YGZ7E2eT6bymyPZTrRBuoy4s1k1UXg9wdxru7iq0HW4IjHcKp8yRwS7y2efcboGWDfFPxfn4jlx0Ufw5Nt9rZ3K9pQE9uOzVv9kut+1OjW4YWiHwxqEO1anjgpcqdY278uKlYeYj9SZ2XqZm7XhGK54PWPGMHebz2R9bPTvfYDWEsJhCQeu2xlBYPAW73LY7NZqwaIOf9nX+yrEw517Lb5jBq7PVo3fQV5kaHc+e6zkrngG/osxZlnVetqtHviFjCHMWB9+zGPCcmD602S637U4NIiw2LCZZaoXz3GMbnAfVTQyaI6gFMnWBtLEh9z0EbIe57aKdPo8JJGoM4SKU77lPsyxLuncxoD5giudUW6VjA2oibrbLbbtTY+hZ/DVt+ee6zc+15gi2aWxNF5poQdCnlI56Vym/ANTb2RuK6iY21XxdN4TRCJetWsuS+eKcZdmx7zZ1FNCuRFjsyBjC4g8df85eIJ8tVsujCEO/tWEx1mIV9ajeeyzGOVEtSfs7Z001JYFdpKLMPhPhxzZ1wzdoHA9guO7K8+ePEjon38/XpooaoG13aihhsW2jvtUcQd8LykaqYfgDO5RtjHmlhSrFN1vfb7jfUyoi/k7fOL9SvcgmRTicqq7k29lk+sHu5OL4+8Cu8AlMe+r9GQvf6+BeSj1xFQZ5TloF7Tp9qkBd3Hq73LY7Y5dhJ/8kVS+xqgxOHdubeKpw19dzfdSm51Kh7mLDSq07u4q54ffe1zz050OqqZhlmc8H8zbP81EPJ/i8Hr6lFbp87Bi6eH6as1bXXtbZclgHeZ4PvoqAetR+FvCrs4S3yrPndeW4a1XZVs8py7J7z2LcD3meO3ee0LadjKZtd2nMO7gUtQR7C4rmu1I1QTTc/L5iSf9j9TZWqV0ERPFt4Duau+czXGVv6L1eS9ZlWXaRZdm87XZ1uik27e60SZSRmQ6FvD9bO6csy84Cdm3Z6mdwCHa5bXdpKGHRdwj1tWoJji0gvaxZGV43P5HJ0MD3+d4gnm9ryMreTOzx9UXS3lTazkcOGcp8rOfRmyzLTlznFmrRh+80oN7PyXy3qOWlw4+WPRAWne1y2+7EWHsWj2eT6cXQFnioF7TpYve9va31/+vmvaTeIwD0Ls/zi4bdljZ50/dNRT1Qz0t/ZefbvdXfBwkMVkY31V7ClY5j6+beeCxGOQ04VG/nZL4Lim8CfvWMoVI3u9y2uzLWBS5TvQF2gUeuBR7HAykrc9RQ2mJTl3ltKI61sAcYoZBw0dtNRSGmqgfqZcuhq5BzN32Eq1Jvi1GPi1NgVAgOWS3cS2BsERSX9Cp62+W2Hd1QwmLbsPNUDdSWlZmrrEySq4M157Hpw/p8rde0br4iZRaACuqBCNln943mGXVSfsU+rhZsPG/40eChqxbByihczWMXt7Y3xyzLbjact3Ng1PXTt5ak6eqczKfvZ0hQtI7pVfSzy227C0MJi6Fv+iaPlebfa3vA5KgnsGkCenk4mvmKQLjQEirPdTGP2hOhm8O9x8reNkNXJ4HByuha+t4et20PiG6gpw07cTkFRoWq0PekOKeLGL06pfPyeT/XnVOEO9gut+2oBhEW1dtme89eG2P+PeJDp7wA5qRhzsWeAuNhQ/V/hqCBGroRnwe+RlP1RNy3vbHYmnvqVfPZkarspW8vhMrGtL0h2i/fCwUsr+PbXjzdCO9VHq3pvF0D41WL99QoLNhzurLvq28vk30dNMzoel5V7vI8Z5vWQLvctmMbRJ3FdZp7eKQAGfptzWh/6GS/sSkIvmv4sX8xxvx+xb/V1mZMGXUWP0WdRTdtnp8dgqwoW+XjQV/Q7HXlpqmGn3qvjhTY2h77dZ7nQfMQFdh8V+fWudWX8Q/6Y/97X3+Mrt0HbUKUhmZrv/AH1l6sO+a8tJ1rcX7FteeRzsm3yHaV1vX/aNvfHmdn23YsgwyL6zR/rwiPrnWrHharZepbWBnVVqy7iP+fMeaXK/7tfLFaDvJbKWHxU4RFNy1vKI8UAHxr39V5KI1g3CtcFF/g2oSldZd5nrft/YgZrPpgX9vDusCo9/Qmws06uXNzQdv+9jg73bZjGEVYLNPClUOHNH+5WC2d3wD1Zp4qlBYfguKbxlmXNR3topzAi92gdm0pIyx+irDopu3z0+KGm4gX+j5EuZkMNFg905BzpQGeV5SgaGjb68fa2bYdw+jqLNpwZOsVavjV7t/8Qiv+1idxOw8/27I79qE1j6X8QdvT373XloRe1usl1gj5sDywawvgRzfowxaLPvoW7Wai4c7DAVVQeNEUFM3wzutOQ89cuyPb5bYdw+h6FutoDmAxZH3gsjWfgqJruYNXPtsLzibT9X1B79SVbUrzfAoHnkNEXj2nqaFn8VP0LLqJ9fwG0hv1Ks/zTlZJdjCHMSZ7sz8KWSGslclfJnpe17FL5NC2Nx5zp9t2qJ0Ki7409Dz37LaeLVZLp43pbcHwDp/+i8Vq2fs2VrEQFj9FWHQT8/nppnKaYGhaKlR0ujhPqy8vEhu2c1rYUseuTNV5xZy/1oYNv6ddhAPaduVxd7pthxjrdn+xnARcKFNZUELJHKAF28OjsiXPArYO68q5hik7v5loiHc/oeFbuyK09RCtXruDlqV1YrnV+8nuLD3a9bYdgrBYL6TsTAo9XHcuQ+wAmik0Hb3jDgAAAAJmSURBVKjO67bmO9lQMbM3uD538tBN1fYwPgncSzoGe9zPY5YOKYWF2ZbOywaUJ3ZEpKkEC7qzy23bF2GxXki9LKd5EB1vN/jPHT42sHMULk7V0/a6p96IB+3k9Pm2Q4Xt7dBUjyc99jRelgJVJws+7Guq85o57JoVw63OaZ9dWdKw623bFXMWa2xYgOLCqX6jY8HtUIMtmVNgzuKnmLPops/npzl9R2vltNp60OR72+NxlWpPQ6ng8FHEItRGYao4995voJrLVpxXzGLeF9s4J9p2mF1u21UIizW0d7TvhfB2sVo2Bhf1LL6P/Zxdjw8gHtVwK//Zd/iiuVQx32JXkJuhlkzRopFiV5ZHjtfN21LVB3utnad2Aw04r6KixU1xXkMLBfjUrrftAmGxhmfZnIJX+ZyCai6Wh6aLi1OhHACrPqz24nvEfEUAABALYbGGApzPFkFL1/qNkZ+nDZJzQiIAAIiNsNhAw8UuWwR93KKJXVMAAMCYsBq6gcLfYcMKqSVBEQAAjBE9ix40h/FQcwZNMXF1yDulAAAA1CEsAgAAoBLD0AAAAKhEWAQAAEAlwiIAAAAqERYBAABQibAIAACASoRFAAAAVCIsAgAAoBJhEQAAAJUIiwAAAKhEWAQAAEAlwiIAAAAqERYBAABQibAIAACASoRFAAAAVCIsAgAAoBJhEQAAAJUIiwAAAKhEWAQAAEAlwiIAAAAqERYBAABQibAIAACASoRFAAAAVCIsAgAAoBJhEQAAAJUIiwAAAKhEWAQAAEAlwiIAAAAqERYBAABQibAIAACASoRFAAAAbGaM+X9AaQJrSYcJYwAAAABJRU5ErkJggg==;" vertex="1" parent="1">
          <mxGeometry x="365.87" y="590" width="130" height="35.54360189573459" as="geometry" />
        </mxCell>
        <mxCell id="e2Iv5FSNz80p6eu2SdD5-3" value="samla-rag" style="strokeWidth=2;html=1;shape=mxgraph.flowchart.database;whiteSpace=wrap;" vertex="1" parent="1">
          <mxGeometry x="353.99417061611376" y="709.0902825637492" width="153.7440758293839" height="150.90971743625087" as="geometry" />
        </mxCell>
        <mxCell id="e2Iv5FSNz80p6eu2SdD5-9" style="edgeStyle=orthogonalEdgeStyle;rounded=0;orthogonalLoop=1;jettySize=auto;html=1;entryX=0.5;entryY=0;entryDx=0;entryDy=0;entryPerimeter=0;" edge="1" parent="1" source="e2Iv5FSNz80p6eu2SdD5-6" target="e2Iv5FSNz80p6eu2SdD5-3">
          <mxGeometry relative="1" as="geometry">
            <mxPoint x="445.49085308056874" y="731.4197105444521" as="targetPoint" />
          </mxGeometry>
        </mxCell>
        <mxCell id="e2Iv5FSNz80p6eu2SdD5-6" value="us-east-1" style="text;html=1;align=center;verticalAlign=middle;whiteSpace=wrap;rounded=0;" vertex="1" parent="1">
          <mxGeometry x="397" y="656.99" width="67.75" height="22.33" as="geometry" />
        </mxCell>
        <mxCell id="e2Iv5FSNz80p6eu2SdD5-7" style="edgeStyle=orthogonalEdgeStyle;rounded=0;orthogonalLoop=1;jettySize=auto;html=1;entryX=0.505;entryY=0.093;entryDx=0;entryDy=0;entryPerimeter=0;" edge="1" parent="1" source="e2Iv5FSNz80p6eu2SdD5-1" target="e2Iv5FSNz80p6eu2SdD5-6">
          <mxGeometry relative="1" as="geometry" />
        </mxCell>
        <mxCell id="e2Iv5FSNz80p6eu2SdD5-21" value="Org 1" style="rounded=1;whiteSpace=wrap;html=1;" vertex="1" parent="1">
          <mxGeometry x="372.2918009478673" y="798.4079944865609" width="33.93364928909953" height="33.5909028256375" as="geometry" />
        </mxCell>
        <mxCell id="e2Iv5FSNz80p6eu2SdD5-22" value="Org 2" style="rounded=1;whiteSpace=wrap;html=1;" vertex="1" parent="1">
          <mxGeometry x="412.3827962085308" y="798.6908339076499" width="33.93364928909953" height="33.308063404548584" as="geometry" />
        </mxCell>
        <mxCell id="e2Iv5FSNz80p6eu2SdD5-23" value="Org 3" style="rounded=1;whiteSpace=wrap;html=1;" vertex="1" parent="1">
          <mxGeometry x="455.5145497630332" y="798.6908339076499" width="33.93364928909953" height="33.308063404548584" as="geometry" />
        </mxCell>
        <mxCell id="e2Iv5FSNz80p6eu2SdD5-71" style="edgeStyle=orthogonalEdgeStyle;rounded=0;orthogonalLoop=1;jettySize=auto;html=1;entryX=0.5;entryY=0;entryDx=0;entryDy=0;" edge="1" parent="1" source="e2Iv5FSNz80p6eu2SdD5-25" target="e2Iv5FSNz80p6eu2SdD5-1">
          <mxGeometry relative="1" as="geometry">
            <Array as="points">
              <mxPoint x="430.86" y="270" />
            </Array>
          </mxGeometry>
        </mxCell>
        <mxCell id="e2Iv5FSNz80p6eu2SdD5-25" value="/create-index" style="shape=process;whiteSpace=wrap;html=1;backgroundOutline=1;" vertex="1" parent="1">
          <mxGeometry x="277" y="240" width="120" height="60" as="geometry" />
        </mxCell>
        <mxCell id="e2Iv5FSNz80p6eu2SdD5-70" style="edgeStyle=orthogonalEdgeStyle;rounded=0;orthogonalLoop=1;jettySize=auto;html=1;entryX=0.5;entryY=0;entryDx=0;entryDy=0;" edge="1" parent="1" source="e2Iv5FSNz80p6eu2SdD5-26" target="e2Iv5FSNz80p6eu2SdD5-1">
          <mxGeometry relative="1" as="geometry">
            <Array as="points">
              <mxPoint x="336.86" y="390" />
              <mxPoint x="430.86" y="390" />
            </Array>
          </mxGeometry>
        </mxCell>
        <mxCell id="e2Iv5FSNz80p6eu2SdD5-26" value="/upload-documents" style="shape=process;whiteSpace=wrap;html=1;backgroundOutline=1;" vertex="1" parent="1">
          <mxGeometry x="277" y="320" width="120" height="60" as="geometry" />
        </mxCell>
        <mxCell id="e2Iv5FSNz80p6eu2SdD5-68" style="edgeStyle=orthogonalEdgeStyle;rounded=0;orthogonalLoop=1;jettySize=auto;html=1;entryX=0.5;entryY=0;entryDx=0;entryDy=0;" edge="1" parent="1" source="e2Iv5FSNz80p6eu2SdD5-27" target="e2Iv5FSNz80p6eu2SdD5-1">
          <mxGeometry relative="1" as="geometry">
            <Array as="points">
              <mxPoint x="336.86" y="480" />
              <mxPoint x="430.86" y="480" />
            </Array>
          </mxGeometry>
        </mxCell>
        <mxCell id="e2Iv5FSNz80p6eu2SdD5-27" value="/search" style="shape=process;whiteSpace=wrap;html=1;backgroundOutline=1;" vertex="1" parent="1">
          <mxGeometry x="277" y="400" width="120" height="60" as="geometry" />
        </mxCell>
        <mxCell id="e2Iv5FSNz80p6eu2SdD5-28" style="edgeStyle=orthogonalEdgeStyle;rounded=0;orthogonalLoop=1;jettySize=auto;html=1;entryX=0;entryY=0.5;entryDx=0;entryDy=0;" edge="1" parent="1" source="e2Iv5FSNz80p6eu2SdD5-31" target="e2Iv5FSNz80p6eu2SdD5-25">
          <mxGeometry relative="1" as="geometry" />
        </mxCell>
        <mxCell id="e2Iv5FSNz80p6eu2SdD5-29" style="edgeStyle=orthogonalEdgeStyle;rounded=0;orthogonalLoop=1;jettySize=auto;html=1;exitX=1;exitY=0.5;exitDx=0;exitDy=0;entryX=0;entryY=0.5;entryDx=0;entryDy=0;" edge="1" parent="1" source="e2Iv5FSNz80p6eu2SdD5-31" target="e2Iv5FSNz80p6eu2SdD5-26">
          <mxGeometry relative="1" as="geometry" />
        </mxCell>
        <mxCell id="e2Iv5FSNz80p6eu2SdD5-30" style="edgeStyle=orthogonalEdgeStyle;rounded=0;orthogonalLoop=1;jettySize=auto;html=1;exitX=1;exitY=0.5;exitDx=0;exitDy=0;entryX=0;entryY=0.5;entryDx=0;entryDy=0;" edge="1" parent="1" source="e2Iv5FSNz80p6eu2SdD5-31" target="e2Iv5FSNz80p6eu2SdD5-27">
          <mxGeometry relative="1" as="geometry" />
        </mxCell>
        <mxCell id="e2Iv5FSNz80p6eu2SdD5-31" value="POST" style="text;html=1;align=center;verticalAlign=middle;whiteSpace=wrap;rounded=0;" vertex="1" parent="1">
          <mxGeometry x="147" y="335" width="60" height="30" as="geometry" />
        </mxCell>
        <mxCell id="e2Iv5FSNz80p6eu2SdD5-72" style="edgeStyle=orthogonalEdgeStyle;rounded=0;orthogonalLoop=1;jettySize=auto;html=1;entryX=0.5;entryY=0;entryDx=0;entryDy=0;" edge="1" parent="1" source="e2Iv5FSNz80p6eu2SdD5-38" target="e2Iv5FSNz80p6eu2SdD5-1">
          <mxGeometry relative="1" as="geometry">
            <Array as="points">
              <mxPoint x="532.86" y="480" />
              <mxPoint x="430.86" y="480" />
            </Array>
          </mxGeometry>
        </mxCell>
        <mxCell id="e2Iv5FSNz80p6eu2SdD5-38" value="/list-indexes" style="shape=process;whiteSpace=wrap;html=1;backgroundOutline=1;direction=west;" vertex="1" parent="1">
          <mxGeometry x="472.86" y="320" width="120" height="60" as="geometry" />
        </mxCell>
        <mxCell id="e2Iv5FSNz80p6eu2SdD5-41" style="edgeStyle=orthogonalEdgeStyle;rounded=0;orthogonalLoop=1;jettySize=auto;html=1;entryX=0;entryY=0.5;entryDx=0;entryDy=0;" edge="1" parent="1" source="e2Iv5FSNz80p6eu2SdD5-44" target="e2Iv5FSNz80p6eu2SdD5-38">
          <mxGeometry relative="1" as="geometry" />
        </mxCell>
        <mxCell id="e2Iv5FSNz80p6eu2SdD5-44" value="GET" style="text;html=1;align=center;verticalAlign=middle;whiteSpace=wrap;rounded=0;direction=west;" vertex="1" parent="1">
          <mxGeometry x="642.86" y="335" width="60" height="30" as="geometry" />
        </mxCell>
        <mxCell id="e2Iv5FSNz80p6eu2SdD5-65" style="edgeStyle=orthogonalEdgeStyle;rounded=0;orthogonalLoop=1;jettySize=auto;html=1;entryX=0.5;entryY=0;entryDx=0;entryDy=0;" edge="1" parent="1" source="e2Iv5FSNz80p6eu2SdD5-46" target="e2Iv5FSNz80p6eu2SdD5-1">
          <mxGeometry relative="1" as="geometry" />
        </mxCell>
        <mxCell id="e2Iv5FSNz80p6eu2SdD5-46" value="/delete-documents" style="shape=process;whiteSpace=wrap;html=1;backgroundOutline=1;" vertex="1" parent="1">
          <mxGeometry x="277" y="490" width="120" height="60" as="geometry" />
        </mxCell>
        <mxCell id="e2Iv5FSNz80p6eu2SdD5-49" style="edgeStyle=orthogonalEdgeStyle;rounded=0;orthogonalLoop=1;jettySize=auto;html=1;exitX=1;exitY=0.5;exitDx=0;exitDy=0;entryX=0;entryY=0.5;entryDx=0;entryDy=0;" edge="1" parent="1" source="e2Iv5FSNz80p6eu2SdD5-51" target="e2Iv5FSNz80p6eu2SdD5-46">
          <mxGeometry relative="1" as="geometry" />
        </mxCell>
        <mxCell id="e2Iv5FSNz80p6eu2SdD5-51" value="DELETE" style="text;html=1;align=center;verticalAlign=middle;whiteSpace=wrap;rounded=0;" vertex="1" parent="1">
          <mxGeometry x="147" y="505" width="60" height="30" as="geometry" />
        </mxCell>
      </root>
    </mxGraphModel>
  </diagram>
</mxfile>
